<svg viewBox="0 0 269 60" fill="none" xmlns="http://www.w3.org/2000/svg"><path d="M2.399 0v10.818h1.432V1.437h57.073v57.126H3.831v-9.381H2.399V60h59.94V0H2.399z" fill="#FF8E00"/><path d="M5.941 14.103v1.43H3.895v6.151H2.4v-6.152H.365v-1.429h5.576zM17.226 14.103h1.483v7.58h-1.483v-3.142h-2.815v3.141h-1.495v-7.579h1.495v3.011h2.815v-3.011zM27.997 20.252h3.195v1.43h-4.689v-7.579h4.636v1.43h-3.142v1.614h2.87v1.406h-2.87v1.699zM3.496 34.148a3.374 3.374 0 01-1.893-.5 2.693 2.693 0 01-1.082-1.367l1.278-.747a1.7 1.7 0 001.743 1.157c.323.026.646-.053.92-.227a.716.716 0 00-.065-1.2 5.558 5.558 0 00-1.278-.482 7.967 7.967 0 01-.86-.3 3.72 3.72 0 01-.7-.406 1.658 1.658 0 01-.536-.644 2.122 2.122 0 01-.184-.91 2.022 2.022 0 01.736-1.64 2.653 2.653 0 011.76-.612 2.926 2.926 0 011.615.448c.472.307.85.74 1.088 1.251l-1.256.726a1.512 1.512 0 00-1.451-.975 1.144 1.144 0 00-.731.21.668.668 0 00-.265.547.691.691 0 00.3.58c.355.216.74.379 1.142.482.231.072.406.128.526.167.12.039.282.105.488.184.166.064.326.142.477.235.134.089.263.186.385.291.13.107.242.236.33.38.183.327.279.697.276 1.072a2.029 2.029 0 01-.763 1.667 3.084 3.084 0 01-2 .613zM19.915 30.201a3.794 3.794 0 01-.932 2.555l.781.812-1.061.947-.824-.855a3.864 3.864 0 01-1.905.483 3.942 3.942 0 112.788-6.741 3.788 3.788 0 011.153 2.799zm-3.942 2.479c.286-.001.57-.049.842-.141l-1.245-1.3 1.061-.947 1.332 1.385c.302-.433.46-.949.454-1.476a2.426 2.426 0 00-.7-1.788 2.512 2.512 0 00-3.487 0 2.608 2.608 0 000 3.564 2.368 2.368 0 001.743.704v-.001zM29.19 34.147a3.04 3.04 0 01-2.079-.715 2.405 2.405 0 01-.812-1.914v-5.1h1.483v4.981a1.3 1.3 0 00.341.947 1.419 1.419 0 001.067.346 1.443 1.443 0 001.067-.346 1.295 1.295 0 00.342-.947v-4.984h1.494v5.1a2.425 2.425 0 01-.812 1.917 3.044 3.044 0 01-2.091.715zM5.544 46.313l-.454-1.367H2.068l-.454 1.367H0l2.653-7.581H4.5l2.663 7.58-1.619.001zm-3-2.761h2.084l-1.039-3.1-1.045 3.1zM17.668 46.313l-1.527-2.63h-1.137v2.63H13.51v-7.581h3.032a2.512 2.512 0 012.525 2.512c0 .465-.139.92-.4 1.305-.262.394-.63.706-1.06.9l1.678 2.859-1.617.005zm-2.665-6.183v2.242h1.538a.95.95 0 00.726-.33c.2-.218.308-.504.3-.8.007-.292-.1-.576-.3-.79a.957.957 0 00-.726-.325l-1.538.003zM27.899 44.782h3.194v1.43h-4.685V38.63h4.628v1.431h-3.138v1.614h2.87v1.407h-2.87l.001 1.7zM94.384 17.184h5.52v28.8h5.28v-28.8h5.52v-4.8h-16.32v4.8zM118.309 31.584h6v14.4h5.376v-33.6h-5.376v14.4h-6v-14.4h-5.28v33.6h5.28v-14.4zM138.794 17.184h9.12v-4.8h-14.4v33.6h14.4v-4.8h-9.12v-9.84h7.248v-4.8h-7.248v-9.36zM157.967 20.448c0 9.6 10.32 10.896 10.32 17.808 0 2.4-1.056 3.264-2.736 3.264-1.68 0-2.736-.864-2.736-3.264v-2.4h-4.992v2.064c0 5.376 2.688 8.448 7.872 8.448 5.184 0 7.872-3.072 7.872-8.448 0-9.6-10.32-10.896-10.32-17.808 0-2.4.96-3.312 2.64-3.312 1.68 0 2.64.912 2.64 3.312v1.392h4.992v-1.056c0-5.376-2.64-8.448-7.776-8.448-5.136 0-7.776 3.072-7.776 8.448zM176.16 37.92c0 5.376 2.832 8.448 8.016 8.448 1.392 0 2.64-.24 3.696-.624.72 1.44 2.208 2.304 4.56 2.304h.72v-4.704h-.48c-.864 0-1.248-.096-1.488-.72.672-1.248 1.008-2.832 1.008-4.704V20.448c0-5.376-2.832-8.448-8.016-8.448s-8.016 3.072-8.016 8.448V37.92zm5.28-17.808c0-2.4 1.056-3.312 2.736-3.312 1.68 0 2.736.912 2.736 3.312v18.144c0 2.4-1.056 3.312-2.736 3.312-1.68 0-2.736-.912-2.736-3.312V20.112zM195.383 12.384v25.584c0 5.376 2.688 8.448 7.872 8.448 5.184 0 7.872-3.072 7.872-8.448V12.384h-4.992v25.92c0 2.4-1.056 3.264-2.736 3.264-1.68 0-2.736-.864-2.736-3.264v-25.92h-5.28zM226.46 12.384h-7.728l-5.376 33.6h4.848l.912-6.096h6.48l.912 6.096h5.328l-5.376-33.6zm-4.128 5.952l2.544 16.992h-5.088l2.544-16.992zM250.711 45.984c-.528-1.248-.576-2.448-.576-4.08V36.72c0-3.504-.864-6.048-3.504-7.152 2.352-1.104 3.456-3.36 3.456-6.816v-2.64c0-5.184-2.352-7.728-7.824-7.728h-7.968v33.6h5.28v-13.68h1.824c2.4 0 3.456 1.152 3.456 4.272v5.28c0 2.736.192 3.264.48 4.128h5.376zm-8.592-28.8c1.872 0 2.688 1.056 2.688 3.456v3.312c0 2.688-1.2 3.552-3.168 3.552h-2.064v-10.32h2.544zM258.887 17.184h9.121v-4.8h-14.401v33.6h14.401v-4.8h-9.121v-9.84h7.248v-4.8h-7.248v-9.36z" fill="#FF8E00"/></svg>